<mxfile host="app.diagrams.net" modified="2024-02-16T15:09:09.114Z" agent="Mozilla/5.0 (Windows NT 10.0; Win64; x64; rv:99.0) Gecko/20100101 Firefox/99.0" etag="-b5U9HqGWW047q97Hv9V" version="23.1.4" type="device">
  <diagram name="Page-1" id="xdEhmo5jCDgj_1OPdo5Z">
    <mxGraphModel dx="2074" dy="632" grid="1" gridSize="10" guides="1" tooltips="1" connect="1" arrows="1" fold="1" page="1" pageScale="1" pageWidth="850" pageHeight="1100" math="0" shadow="0">
      <root>
        <mxCell id="0" />
        <mxCell id="1" parent="0" />
        <mxCell id="zqP8BajkEVMQ_3qFqa1f-3" value="" style="edgeStyle=orthogonalEdgeStyle;rounded=0;orthogonalLoop=1;jettySize=auto;html=1;" edge="1" parent="1" source="zqP8BajkEVMQ_3qFqa1f-1" target="zqP8BajkEVMQ_3qFqa1f-2">
          <mxGeometry relative="1" as="geometry" />
        </mxCell>
        <mxCell id="zqP8BajkEVMQ_3qFqa1f-1" value="" style="shape=actor;whiteSpace=wrap;html=1;" vertex="1" parent="1">
          <mxGeometry x="140" y="200" width="40" height="60" as="geometry" />
        </mxCell>
        <mxCell id="zqP8BajkEVMQ_3qFqa1f-5" value="" style="edgeStyle=orthogonalEdgeStyle;rounded=0;orthogonalLoop=1;jettySize=auto;html=1;" edge="1" parent="1" source="zqP8BajkEVMQ_3qFqa1f-2" target="zqP8BajkEVMQ_3qFqa1f-4">
          <mxGeometry relative="1" as="geometry" />
        </mxCell>
        <mxCell id="zqP8BajkEVMQ_3qFqa1f-7" value="" style="edgeStyle=orthogonalEdgeStyle;rounded=0;orthogonalLoop=1;jettySize=auto;html=1;" edge="1" parent="1" source="zqP8BajkEVMQ_3qFqa1f-2" target="zqP8BajkEVMQ_3qFqa1f-6">
          <mxGeometry relative="1" as="geometry" />
        </mxCell>
        <mxCell id="zqP8BajkEVMQ_3qFqa1f-2" value="UI" style="whiteSpace=wrap;html=1;" vertex="1" parent="1">
          <mxGeometry x="280" y="200" width="120" height="60" as="geometry" />
        </mxCell>
        <mxCell id="zqP8BajkEVMQ_3qFqa1f-4" value="Becrock API" style="whiteSpace=wrap;html=1;verticalAlign=top;" vertex="1" parent="1">
          <mxGeometry x="480" y="170" width="170" height="120" as="geometry" />
        </mxCell>
        <mxCell id="zqP8BajkEVMQ_3qFqa1f-6" value="&lt;div&gt;Bedrock Knowledgebase&lt;/div&gt;&lt;div&gt;&lt;br&gt;&lt;/div&gt;" style="whiteSpace=wrap;html=1;verticalAlign=top;" vertex="1" parent="1">
          <mxGeometry x="230" y="370" width="220" height="130" as="geometry" />
        </mxCell>
        <mxCell id="zqP8BajkEVMQ_3qFqa1f-10" style="edgeStyle=orthogonalEdgeStyle;rounded=0;orthogonalLoop=1;jettySize=auto;html=1;" edge="1" parent="1" source="zqP8BajkEVMQ_3qFqa1f-8" target="zqP8BajkEVMQ_3qFqa1f-9">
          <mxGeometry relative="1" as="geometry" />
        </mxCell>
        <mxCell id="zqP8BajkEVMQ_3qFqa1f-8" value="Open Search Vector Database" style="rounded=1;whiteSpace=wrap;html=1;" vertex="1" parent="1">
          <mxGeometry x="290" y="420" width="120" height="60" as="geometry" />
        </mxCell>
        <mxCell id="zqP8BajkEVMQ_3qFqa1f-9" value="S3 Bucket - Hosting data to create Knowledge Base" style="sketch=0;outlineConnect=0;fontColor=#232F3E;gradientColor=none;strokeColor=#ffffff;fillColor=#232F3E;dashed=0;verticalLabelPosition=middle;verticalAlign=bottom;align=center;html=1;whiteSpace=wrap;fontSize=10;fontStyle=1;spacing=3;shape=mxgraph.aws4.productIcon;prIcon=mxgraph.aws4.s3;" vertex="1" parent="1">
          <mxGeometry x="310" y="560" width="80" height="150" as="geometry" />
        </mxCell>
        <mxCell id="zqP8BajkEVMQ_3qFqa1f-11" value="Bedrock Hosted Model" style="rounded=1;whiteSpace=wrap;html=1;" vertex="1" parent="1">
          <mxGeometry x="511" y="220" width="120" height="60" as="geometry" />
        </mxCell>
        <mxCell id="zqP8BajkEVMQ_3qFqa1f-12" value="1" style="ellipse;whiteSpace=wrap;html=1;aspect=fixed;" vertex="1" parent="1">
          <mxGeometry x="210" y="190" width="30" height="30" as="geometry" />
        </mxCell>
        <mxCell id="zqP8BajkEVMQ_3qFqa1f-13" value="2" style="ellipse;whiteSpace=wrap;html=1;aspect=fixed;" vertex="1" parent="1">
          <mxGeometry x="300" y="300" width="30" height="30" as="geometry" />
        </mxCell>
        <mxCell id="zqP8BajkEVMQ_3qFqa1f-14" value="3" style="ellipse;whiteSpace=wrap;html=1;aspect=fixed;" vertex="1" parent="1">
          <mxGeometry x="425" y="190" width="30" height="30" as="geometry" />
        </mxCell>
      </root>
    </mxGraphModel>
  </diagram>
</mxfile>
